<mxfile host="Electron" modified="2024-06-04T02:03:43.736Z" agent="Mozilla/5.0 (Windows NT 10.0; Win64; x64) AppleWebKit/537.36 (KHTML, like Gecko) draw.io/24.4.13 Chrome/124.0.6367.207 Electron/30.0.6 Safari/537.36" etag="R-0IN112MvNF_eVfkPGz" version="24.4.13" type="device">
  <diagram name="Страница — 1" id="sXNy4hhDkdhZQIGHzKrt">
    <mxGraphModel dx="1220" dy="864" grid="1" gridSize="10" guides="1" tooltips="1" connect="1" arrows="1" fold="1" page="1" pageScale="1" pageWidth="827" pageHeight="1169" math="0" shadow="0">
      <root>
        <mxCell id="0" />
        <mxCell id="1" parent="0" />
        <mxCell id="w4VG-nZ6VcwN2V-ODROd-1" value="Начало" style="rounded=1;whiteSpace=wrap;html=1;arcSize=50;" vertex="1" parent="1">
          <mxGeometry x="354" y="60" width="120" height="30" as="geometry" />
        </mxCell>
        <mxCell id="w4VG-nZ6VcwN2V-ODROd-4" value="" style="endArrow=none;html=1;rounded=0;entryX=0.5;entryY=1;entryDx=0;entryDy=0;exitX=0.5;exitY=0;exitDx=0;exitDy=0;" edge="1" parent="1" source="w4VG-nZ6VcwN2V-ODROd-5" target="w4VG-nZ6VcwN2V-ODROd-1">
          <mxGeometry width="50" height="50" relative="1" as="geometry">
            <mxPoint x="414" y="100" as="sourcePoint" />
            <mxPoint x="420" y="120" as="targetPoint" />
          </mxGeometry>
        </mxCell>
        <mxCell id="w4VG-nZ6VcwN2V-ODROd-5" value="Ввод&amp;nbsp;length" style="shape=parallelogram;perimeter=parallelogramPerimeter;whiteSpace=wrap;html=1;fixedSize=1;" vertex="1" parent="1">
          <mxGeometry x="354" y="100" width="120" height="20" as="geometry" />
        </mxCell>
        <mxCell id="w4VG-nZ6VcwN2V-ODROd-6" value="" style="endArrow=none;html=1;rounded=0;entryX=0.5;entryY=0;entryDx=0;entryDy=0;exitX=0.5;exitY=1;exitDx=0;exitDy=0;" edge="1" parent="1" source="w4VG-nZ6VcwN2V-ODROd-5" target="w4VG-nZ6VcwN2V-ODROd-7">
          <mxGeometry width="50" height="50" relative="1" as="geometry">
            <mxPoint x="430" y="140" as="sourcePoint" />
            <mxPoint x="410" y="140" as="targetPoint" />
          </mxGeometry>
        </mxCell>
        <mxCell id="w4VG-nZ6VcwN2V-ODROd-7" value="Ввод&amp;nbsp;min_gen" style="shape=parallelogram;perimeter=parallelogramPerimeter;whiteSpace=wrap;html=1;fixedSize=1;" vertex="1" parent="1">
          <mxGeometry x="354" y="130" width="120" height="20" as="geometry" />
        </mxCell>
        <mxCell id="w4VG-nZ6VcwN2V-ODROd-8" value="" style="endArrow=none;html=1;rounded=0;entryX=0.5;entryY=1;entryDx=0;entryDy=0;exitX=0.5;exitY=0;exitDx=0;exitDy=0;" edge="1" parent="1" source="w4VG-nZ6VcwN2V-ODROd-9" target="w4VG-nZ6VcwN2V-ODROd-7">
          <mxGeometry width="50" height="50" relative="1" as="geometry">
            <mxPoint x="414" y="160" as="sourcePoint" />
            <mxPoint x="410" y="140" as="targetPoint" />
          </mxGeometry>
        </mxCell>
        <mxCell id="w4VG-nZ6VcwN2V-ODROd-9" value="Ввод max_gen" style="shape=parallelogram;perimeter=parallelogramPerimeter;whiteSpace=wrap;html=1;fixedSize=1;" vertex="1" parent="1">
          <mxGeometry x="354" y="160" width="120" height="20" as="geometry" />
        </mxCell>
        <mxCell id="w4VG-nZ6VcwN2V-ODROd-10" value="" style="endArrow=none;html=1;rounded=0;entryX=0.5;entryY=1;entryDx=0;entryDy=0;exitX=0.5;exitY=0;exitDx=0;exitDy=0;" edge="1" parent="1" source="w4VG-nZ6VcwN2V-ODROd-11" target="w4VG-nZ6VcwN2V-ODROd-9">
          <mxGeometry width="50" height="50" relative="1" as="geometry">
            <mxPoint x="350" y="210" as="sourcePoint" />
            <mxPoint x="400" y="160" as="targetPoint" />
          </mxGeometry>
        </mxCell>
        <mxCell id="w4VG-nZ6VcwN2V-ODROd-11" value="DGV_MAIN_ARRAY = new int[length, length]" style="rounded=0;whiteSpace=wrap;html=1;" vertex="1" parent="1">
          <mxGeometry x="280" y="190" width="268" height="20" as="geometry" />
        </mxCell>
        <mxCell id="w4VG-nZ6VcwN2V-ODROd-12" value="" style="endArrow=none;html=1;rounded=0;exitX=0.5;exitY=1;exitDx=0;exitDy=0;entryX=0.5;entryY=0;entryDx=0;entryDy=0;" edge="1" parent="1" source="w4VG-nZ6VcwN2V-ODROd-11" target="w4VG-nZ6VcwN2V-ODROd-13">
          <mxGeometry width="50" height="50" relative="1" as="geometry">
            <mxPoint x="340" y="260" as="sourcePoint" />
            <mxPoint x="390" y="210" as="targetPoint" />
          </mxGeometry>
        </mxCell>
        <mxCell id="w4VG-nZ6VcwN2V-ODROd-13" value="Sem2_Lab5_Fill_Array_RND_Num(DGV_MAIN_ARRAY, min_gen, max_gen)" style="shape=process;whiteSpace=wrap;html=1;backgroundOutline=1;" vertex="1" parent="1">
          <mxGeometry x="153.5" y="220" width="521" height="20" as="geometry" />
        </mxCell>
        <mxCell id="w4VG-nZ6VcwN2V-ODROd-14" value="" style="endArrow=none;html=1;rounded=0;exitX=0.5;exitY=1;exitDx=0;exitDy=0;entryX=0.5;entryY=0;entryDx=0;entryDy=0;" edge="1" parent="1" source="w4VG-nZ6VcwN2V-ODROd-13" target="w4VG-nZ6VcwN2V-ODROd-15">
          <mxGeometry width="50" height="50" relative="1" as="geometry">
            <mxPoint x="270" y="310" as="sourcePoint" />
            <mxPoint x="400" y="360" as="targetPoint" />
          </mxGeometry>
        </mxCell>
        <mxCell id="w4VG-nZ6VcwN2V-ODROd-15" value="Sem2_Lab5_Fill_corner_DGV(length,Sem2_Lab5_dataGridView_Main)" style="shape=process;whiteSpace=wrap;html=1;backgroundOutline=1;" vertex="1" parent="1">
          <mxGeometry x="171" y="250" width="486" height="20" as="geometry" />
        </mxCell>
        <mxCell id="w4VG-nZ6VcwN2V-ODROd-16" value="" style="endArrow=none;html=1;rounded=0;exitX=0.5;exitY=1;exitDx=0;exitDy=0;entryX=0.5;entryY=0;entryDx=0;entryDy=0;" edge="1" parent="1" source="w4VG-nZ6VcwN2V-ODROd-15" target="w4VG-nZ6VcwN2V-ODROd-17">
          <mxGeometry width="50" height="50" relative="1" as="geometry">
            <mxPoint x="270" y="310" as="sourcePoint" />
            <mxPoint x="320" y="260" as="targetPoint" />
          </mxGeometry>
        </mxCell>
        <mxCell id="w4VG-nZ6VcwN2V-ODROd-17" value="Sem2_Lab5_Enter_Mas_in_DGV(DGV_MAIN_ARRAY, Sem2_Lab5_dataGridView_Main)" style="shape=process;whiteSpace=wrap;html=1;backgroundOutline=1;" vertex="1" parent="1">
          <mxGeometry x="114" y="280" width="600" height="20" as="geometry" />
        </mxCell>
        <mxCell id="w4VG-nZ6VcwN2V-ODROd-19" value="" style="endArrow=none;html=1;rounded=0;entryX=0.5;entryY=0;entryDx=0;entryDy=0;exitX=0.5;exitY=1;exitDx=0;exitDy=0;" edge="1" target="w4VG-nZ6VcwN2V-ODROd-21" parent="1" source="w4VG-nZ6VcwN2V-ODROd-17">
          <mxGeometry width="50" height="50" relative="1" as="geometry">
            <mxPoint x="359" y="500" as="sourcePoint" />
            <mxPoint x="359" y="520" as="targetPoint" />
          </mxGeometry>
        </mxCell>
        <mxCell id="w4VG-nZ6VcwN2V-ODROd-21" value="condition_arr_size = SecSem_Dll.Sem2_Lab5_Count_Condition(DGV_MAIN_ARRAY)" style="rounded=0;whiteSpace=wrap;html=1;" vertex="1" parent="1">
          <mxGeometry x="178" y="310" width="471" height="20" as="geometry" />
        </mxCell>
        <mxCell id="w4VG-nZ6VcwN2V-ODROd-23" value="" style="endArrow=none;html=1;rounded=0;entryX=0.5;entryY=0;entryDx=0;entryDy=0;exitX=0.5;exitY=1;exitDx=0;exitDy=0;" edge="1" target="w4VG-nZ6VcwN2V-ODROd-24" parent="1" source="w4VG-nZ6VcwN2V-ODROd-21">
          <mxGeometry width="50" height="50" relative="1" as="geometry">
            <mxPoint x="160" y="560" as="sourcePoint" />
            <mxPoint x="75.99999999999989" y="560" as="targetPoint" />
          </mxGeometry>
        </mxCell>
        <mxCell id="w4VG-nZ6VcwN2V-ODROd-24" value="compare = condition_arr_size[0]" style="rounded=0;whiteSpace=wrap;html=1;" vertex="1" parent="1">
          <mxGeometry x="321" y="340" width="186" height="20" as="geometry" />
        </mxCell>
        <mxCell id="w4VG-nZ6VcwN2V-ODROd-26" value="" style="endArrow=none;html=1;rounded=0;entryX=0.5;entryY=0;entryDx=0;entryDy=0;exitX=0.5;exitY=1;exitDx=0;exitDy=0;" edge="1" target="w4VG-nZ6VcwN2V-ODROd-27" parent="1" source="w4VG-nZ6VcwN2V-ODROd-24">
          <mxGeometry width="50" height="50" relative="1" as="geometry">
            <mxPoint x="170" y="480" as="sourcePoint" />
            <mxPoint x="200" y="400" as="targetPoint" />
          </mxGeometry>
        </mxCell>
        <mxCell id="w4VG-nZ6VcwN2V-ODROd-27" value="MessageBox.Show(&quot;Чисел которые делятся на 3: &quot; + condition_arr_size[0].ToString() + &quot;\n Кол-во чисел которые большего этого числа: &quot; + condition_arr_size[1].ToString(), &quot;Результат&quot;);" style="shape=process;whiteSpace=wrap;html=1;backgroundOutline=1;" vertex="1" parent="1">
          <mxGeometry x="171" y="370" width="486" height="50" as="geometry" />
        </mxCell>
        <mxCell id="w4VG-nZ6VcwN2V-ODROd-28" value="" style="endArrow=none;html=1;rounded=0;entryX=0.5;entryY=0;entryDx=0;entryDy=0;exitX=0.5;exitY=1;exitDx=0;exitDy=0;" edge="1" target="w4VG-nZ6VcwN2V-ODROd-29" parent="1" source="w4VG-nZ6VcwN2V-ODROd-27">
          <mxGeometry width="50" height="50" relative="1" as="geometry">
            <mxPoint x="379.9999999999999" y="700" as="sourcePoint" />
            <mxPoint x="295.9999999999999" y="700" as="targetPoint" />
          </mxGeometry>
        </mxCell>
        <mxCell id="w4VG-nZ6VcwN2V-ODROd-29" value="DGV_TWIN_ARRAY = SecSem_Dll.Sem2_Lab5_Usually&lt;br&gt;(condition_arr_size[1], DGV_MAIN_ARRAY, condition_arr_size[0]);" style="rounded=0;whiteSpace=wrap;html=1;" vertex="1" parent="1">
          <mxGeometry x="232" y="430" width="364" height="40" as="geometry" />
        </mxCell>
        <mxCell id="w4VG-nZ6VcwN2V-ODROd-30" value="" style="endArrow=none;html=1;rounded=0;entryX=0.5;entryY=1;entryDx=0;entryDy=0;exitX=0.5;exitY=0;exitDx=0;exitDy=0;" edge="1" target="w4VG-nZ6VcwN2V-ODROd-29" parent="1" source="w4VG-nZ6VcwN2V-ODROd-32">
          <mxGeometry width="50" height="50" relative="1" as="geometry">
            <mxPoint x="379.9999999999999" y="780" as="sourcePoint" />
            <mxPoint x="375.9999999999999" y="770" as="targetPoint" />
          </mxGeometry>
        </mxCell>
        <mxCell id="w4VG-nZ6VcwN2V-ODROd-32" value="SecSem_Dll.Sem2_Lab5_Enter_Mas_in_DGV(DGV_TWIN_ARRAY, Sem2_Lab5_dataGridView_Twink)" style="rounded=0;whiteSpace=wrap;html=1;" vertex="1" parent="1">
          <mxGeometry x="129" y="480" width="570" height="30" as="geometry" />
        </mxCell>
        <mxCell id="w4VG-nZ6VcwN2V-ODROd-33" value="Конец" style="rounded=1;whiteSpace=wrap;html=1;arcSize=50;" vertex="1" parent="1">
          <mxGeometry x="354" y="520" width="120" height="20" as="geometry" />
        </mxCell>
        <mxCell id="w4VG-nZ6VcwN2V-ODROd-34" value="" style="endArrow=none;html=1;rounded=0;entryX=0.5;entryY=0;entryDx=0;entryDy=0;exitX=0.5;exitY=1;exitDx=0;exitDy=0;" edge="1" target="w4VG-nZ6VcwN2V-ODROd-33" parent="1" source="w4VG-nZ6VcwN2V-ODROd-32">
          <mxGeometry width="50" height="50" relative="1" as="geometry">
            <mxPoint x="310" y="560" as="sourcePoint" />
            <mxPoint x="340" y="600" as="targetPoint" />
          </mxGeometry>
        </mxCell>
      </root>
    </mxGraphModel>
  </diagram>
</mxfile>
